<svg version="1.1" id="Layer_1" xmlns="http://www.w3.org/2000/svg" xmlns:xlink="http://www.w3.org/1999/xlink" x="0px" y="0px"
	 width="100%" viewBox="0 0 256 256" enable-background="new 0 0 256 256" xml:space="preserve">
<path fill="#000000" opacity="0.000000" stroke="none"
	d="
M131.000000,257.000000 
	C87.333336,257.000000 44.166672,257.000000 1.000006,257.000000 
	C1.000004,171.666672 1.000004,86.333351 1.000002,1.000017 
	C86.333321,1.000011 171.666641,1.000011 257.000000,1.000006 
	C257.000000,86.333313 257.000000,171.666626 257.000000,256.999969 
	C215.166672,257.000000 173.333328,257.000000 131.000000,257.000000 
M26.684996,169.000427 
	C34.752777,169.000427 42.820557,169.000427 50.733677,169.000427 
	C51.457790,173.219421 49.557682,178.658005 55.065701,178.767914 
	C61.671867,178.899750 57.535858,172.342010 59.775597,168.999878 
	C68.828209,168.999878 78.125847,169.038956 87.422935,168.984756 
	C92.730156,168.953827 94.239761,166.492371 91.923714,161.725845 
	C90.354088,158.495483 88.562996,155.369644 87.079681,152.102280 
	C86.624237,151.099045 86.396179,149.550079 86.850311,148.646011 
	C90.685089,141.011856 94.702232,133.469315 98.684219,125.861732 
	C109.644745,133.405121 109.645027,133.405457 119.290710,125.201202 
	C119.543739,124.985992 119.736366,124.616447 120.019814,124.533821 
	C121.864388,123.996101 123.860748,122.812752 125.560356,123.136757 
	C135.276657,124.989021 144.965546,127.037041 154.560410,129.432434 
	C156.573471,129.934998 158.572891,131.872177 159.848206,133.667206 
	C162.649963,137.610703 165.262466,141.750290 167.382095,146.088409 
	C168.313217,147.994110 168.320587,150.671585 167.899506,152.833496 
	C167.413300,155.329910 165.885574,157.605423 164.997437,160.045074 
	C162.695007,166.369644 163.541306,169.358521 170.491776,169.080414 
	C178.921021,168.743118 187.374069,169.000381 196.058243,169.000381 
	C196.058243,171.438797 195.441742,173.605560 196.216888,174.997116 
	C197.150894,176.673843 199.266846,177.692169 200.871124,178.995499 
	C201.913193,177.477631 203.335678,176.084625 203.886780,174.405609 
	C204.403259,172.832062 203.997360,170.955780 203.997360,168.999649 
	C214.027954,168.999649 223.341827,169.048828 232.654816,168.979904 
	C237.675919,168.942764 239.097397,166.557312 236.990311,161.979721 
	C235.024094,157.708160 233.123688,153.403778 231.051941,149.183746 
	C221.442535,129.609894 211.827011,110.038589 202.056519,90.545158 
	C201.308823,89.053429 199.315277,87.232338 197.946854,87.269279 
	C196.530716,87.307503 194.590454,89.156914 193.887878,90.679428 
	C191.044983,96.840187 188.592651,103.181084 185.992386,109.453926 
	C181.761398,119.660698 177.527451,129.866241 173.069855,140.614594 
	C163.130768,124.021263 153.558960,108.074715 144.022842,92.106857 
	C138.959000,83.627670 134.043701,75.058449 128.887207,66.636497 
	C126.618050,62.930321 123.771095,63.186844 121.508713,67.005379 
	C120.103020,69.377991 118.628288,71.715569 117.341194,74.151634 
	C107.237488,93.274742 97.186508,112.425720 87.078300,131.546432 
	C85.539581,134.457092 83.789627,137.256058 81.840424,140.619003 
	C73.339417,123.649254 65.223259,107.323700 56.932098,91.087502 
	C56.096573,89.451340 53.779408,87.009132 52.888309,87.289345 
	C51.033890,87.872490 48.988808,89.742249 48.215984,91.584167 
	C38.699543,114.265396 29.342022,137.014053 20.084249,159.802490 
	C17.915092,165.141968 17.556618,169.825333 26.684996,169.000427 
z"/>
<path fill="#28AAE2" opacity="1.000000" stroke="none"
	d="
M26.211487,169.000427 
	C17.556618,169.825333 17.915092,165.141968 20.084249,159.802490 
	C29.342022,137.014053 38.699543,114.265396 48.215984,91.584167 
	C48.988808,89.742249 51.033890,87.872490 52.888309,87.289345 
	C53.779408,87.009132 56.096573,89.451340 56.932098,91.087502 
	C65.223259,107.323700 73.339417,123.649254 81.840424,140.619003 
	C83.789627,137.256058 85.539581,134.457092 87.078300,131.546432 
	C97.186508,112.425720 107.237488,93.274742 117.341194,74.151634 
	C118.628288,71.715569 120.103020,69.377991 121.508713,67.005379 
	C123.771095,63.186844 126.618050,62.930321 128.887207,66.636497 
	C134.043701,75.058449 138.959000,83.627670 144.022842,92.106857 
	C153.558960,108.074715 163.130768,124.021263 173.069855,140.614594 
	C177.527451,129.866241 181.761398,119.660698 185.992386,109.453926 
	C188.592651,103.181084 191.044983,96.840187 193.887878,90.679428 
	C194.590454,89.156914 196.530716,87.307503 197.946854,87.269279 
	C199.315277,87.232338 201.308823,89.053429 202.056519,90.545158 
	C211.827011,110.038589 221.442535,129.609894 231.051941,149.183746 
	C233.123688,153.403778 235.024094,157.708160 236.990311,161.979721 
	C239.097397,166.557312 237.675919,168.942764 232.654816,168.979904 
	C223.341827,169.048828 214.027954,168.999649 203.997360,168.999649 
	C203.997360,170.955780 204.403259,172.832062 203.886780,174.405609 
	C203.335678,176.084625 201.913193,177.477631 200.871124,178.995514 
	C199.266846,177.692169 197.150894,176.673843 196.216888,174.997116 
	C195.441742,173.605560 196.058243,171.438797 196.058243,169.000381 
	C187.374069,169.000381 178.921021,168.743118 170.491776,169.080414 
	C163.541306,169.358521 162.695007,166.369644 164.997437,160.045074 
	C165.885574,157.605423 167.413300,155.329910 167.899506,152.833496 
	C168.320587,150.671585 168.313217,147.994110 167.382095,146.088409 
	C165.262466,141.750290 162.649963,137.610703 159.848206,133.667206 
	C158.572891,131.872177 156.573471,129.934998 154.560410,129.432434 
	C144.965546,127.037041 135.276657,124.989021 125.560356,123.136757 
	C123.860748,122.812752 121.864388,123.996101 120.019814,124.533821 
	C119.736366,124.616447 119.543739,124.985992 119.290710,125.201202 
	C109.645027,133.405457 109.644745,133.405121 98.684219,125.861732 
	C94.702232,133.469315 90.685089,141.011856 86.850311,148.646011 
	C86.396179,149.550079 86.624237,151.099045 87.079681,152.102280 
	C88.562996,155.369644 90.354088,158.495483 91.923714,161.725845 
	C94.239761,166.492371 92.730156,168.953827 87.422935,168.984756 
	C78.125847,169.038956 68.828209,168.999878 59.775597,168.999878 
	C57.535858,172.342010 61.671867,178.899750 55.065701,178.767914 
	C49.557682,178.658005 51.457790,173.219421 50.733677,169.000427 
	C42.820557,169.000427 34.752777,169.000427 26.211487,169.000427 
M227.553635,160.813660 
	C218.009521,140.905228 208.465408,120.996803 198.304947,99.802719 
	C189.549561,120.966110 181.291611,140.927124 173.707367,161.365295 
	C174.334427,161.553009 174.961090,161.903152 175.588623,161.904755 
	C191.779343,161.946136 207.970200,161.964783 224.160889,161.927826 
	C225.102325,161.925674 226.042633,161.421539 227.553635,160.813660 
M28.707624,161.364975 
	C29.670259,161.571060 30.632442,161.954391 31.595592,161.956833 
	C47.881905,161.998215 64.168388,162.007339 80.454590,161.952164 
	C81.267487,161.949402 82.078186,161.297760 82.713524,160.262268 
	C73.051590,140.560760 63.389656,120.859253 53.236317,100.155731 
	C49.999249,107.785812 47.058708,114.572647 44.233459,121.407150 
	C38.799236,134.552994 33.430290,147.725815 28.707624,161.364975 
z"/>
<path fill="#000000" opacity="0.000000" stroke="none"
	d="
M28.034269,160.887451 
	C33.430290,147.725815 38.799236,134.552994 44.233459,121.407150 
	C47.058708,114.572647 49.999249,107.785812 53.236317,100.155731 
	C63.389656,120.859253 73.051590,140.560760 82.340485,160.627838 
	C63.989719,160.958099 46.011993,160.922775 28.034269,160.887451 
z"/>
<path fill="#000000" opacity="0.000000" stroke="none"
	d="
M173.033661,160.888123 
	C181.291611,140.927124 189.549561,120.966110 198.304947,99.802719 
	C208.465408,120.996803 218.009521,140.905228 226.804657,160.917084 
	C208.381683,160.976379 190.707672,160.932251 173.033661,160.888123 
z"/>
<path fill="#2EB9E8" opacity="1.000000" stroke="none"
	d="
M28.370947,161.126221 
	C46.011993,160.922775 63.989719,160.958099 82.428680,160.970840 
	C82.078186,161.297760 81.267487,161.949402 80.454590,161.952164 
	C64.168388,162.007339 47.881905,161.998215 31.595592,161.956833 
	C30.632442,161.954391 29.670259,161.571060 28.370947,161.126221 
z"/>
<path fill="#2EB9E8" opacity="1.000000" stroke="none" 
	d="
M173.370514,161.126709 
	C190.707672,160.932251 208.381683,160.976379 226.519577,161.085770 
	C226.042633,161.421539 225.102325,161.925674 224.160889,161.927826 
	C207.970200,161.964783 191.779343,161.946136 175.588623,161.904755 
	C174.961090,161.903152 174.334427,161.553009 173.370514,161.126709 
z"/>
</svg>