<svg version="1.1" id="Layer_1" xmlns="http://www.w3.org/2000/svg" xmlns:xlink="http://www.w3.org/1999/xlink" x="0px" y="0px"
	 width="100%" viewBox="0 0 256 256" enable-background="new 0 0 256 256" xml:space="preserve">
<path fill="#23ABE3" opacity="1.000000" stroke="none" 
	d="
M122.000000,257.000000 
	C81.333336,257.000000 41.166672,257.000000 1.000005,257.000000 
	C1.000004,171.666672 1.000004,86.333351 1.000002,1.000017 
	C86.333321,1.000011 171.666641,1.000011 257.000000,1.000006 
	C257.000000,86.333313 257.000000,171.666626 257.000000,256.999969 
	C212.166672,257.000000 167.333328,257.000000 122.000000,257.000000 
M22.425192,169.268417 
	C32.181301,169.268417 41.937412,169.268417 52.172169,169.268417 
	C52.172169,172.065689 51.710461,174.190018 52.311413,175.951889 
	C52.836391,177.491013 54.557674,178.622101 55.750423,179.933441 
	C56.770947,178.622757 58.303181,177.444794 58.686031,175.968735 
	C59.196083,174.002197 58.811996,171.803741 58.811996,169.320251 
	C69.272881,169.320251 78.923714,169.386505 88.572975,169.291595 
	C93.226669,169.245850 94.274200,167.542847 92.405479,163.343750 
	C90.850044,159.848633 89.044579,156.463135 87.541885,152.947037 
	C87.004433,151.689484 86.392662,149.876495 86.898842,148.853287 
	C90.853180,140.859833 95.071579,132.997009 99.180809,125.146660 
	C99.977859,125.448433 100.318214,125.512878 100.586174,125.688057 
	C110.911591,132.438278 110.970329,132.508667 120.352036,124.408577 
	C122.591118,122.475365 124.530350,121.907784 127.502228,122.627205 
	C137.039871,124.936012 146.684097,126.801613 156.265839,128.934296 
	C157.644440,129.241150 159.555344,129.712952 160.120117,130.723236 
	C165.601578,140.528366 175.916351,149.432434 166.664841,162.302338 
	C166.473648,162.568298 166.341324,162.890244 166.239761,163.204865 
	C164.861435,167.475540 165.969574,169.217636 170.424149,169.288193 
	C177.422104,169.399033 184.423065,169.322083 191.422745,169.324875 
	C198.209366,169.327591 198.034531,169.352707 198.972534,175.914490 
	C199.181305,177.375061 201.096069,178.591782 202.225372,179.920776 
	C203.205307,178.644714 204.273392,177.423370 205.117889,176.063217 
	C205.417908,175.580017 205.260284,174.746765 205.164795,174.094803 
	C204.620499,170.378265 206.138474,169.139511 209.897949,169.249695 
	C218.223694,169.493683 226.562439,169.391693 234.894272,169.293137 
	C239.905151,169.233871 241.040298,167.546036 238.909729,163.122894 
	C227.139069,138.686508 215.309814,114.278091 203.380493,89.918945 
	C202.676971,88.482376 200.920135,86.648285 199.665573,86.657471 
	C198.464081,86.666260 196.795258,88.629356 196.165787,90.092369 
	C192.616714,98.340904 189.334625,106.704002 185.931412,115.015717 
	C182.305130,123.872200 178.645294,132.714951 174.751724,142.166641 
	C173.551407,140.211548 172.754105,138.961624 172.004074,137.683975 
	C158.182419,114.139946 144.391602,90.577728 130.493240,67.079102 
	C129.555862,65.494247 127.569923,63.131714 126.506302,63.340885 
	C124.832741,63.670013 123.051506,65.624619 122.142708,67.331306 
	C113.616829,83.342567 105.278908,99.453812 96.861526,115.522987 
	C92.243713,124.338608 87.577705,133.128967 82.635719,142.494934 
	C81.481361,140.274994 80.616989,138.706207 79.836258,137.096832 
	C72.209038,121.374321 64.640190,105.623123 56.904568,89.954216 
	C56.191814,88.510506 54.465279,86.705360 53.165768,86.669884 
	C52.002712,86.638153 50.389515,88.622131 49.661545,90.063530 
	C48.016804,93.320145 46.789585,96.788254 45.404060,100.175049 
	C36.964409,120.805161 28.509958,141.429260 20.113235,162.076843 
	C19.060930,164.664474 17.606913,167.529602 22.425192,169.268417 
z"/>
<path fill="#FAFDFE" opacity="1.000000" stroke="none" 
	d="
M22.010002,169.209091 
	C17.606913,167.529602 19.060930,164.664474 20.113235,162.076843 
	C28.509958,141.429260 36.964409,120.805161 45.404060,100.175049 
	C46.789585,96.788254 48.016804,93.320145 49.661545,90.063530 
	C50.389515,88.622131 52.002712,86.638153 53.165768,86.669884 
	C54.465279,86.705360 56.191814,88.510506 56.904568,89.954216 
	C64.640190,105.623123 72.209038,121.374321 79.836258,137.096832 
	C80.616989,138.706207 81.481361,140.274994 82.635719,142.494934 
	C87.577705,133.128967 92.243713,124.338608 96.861526,115.522987 
	C105.278908,99.453812 113.616829,83.342567 122.142708,67.331306 
	C123.051506,65.624619 124.832741,63.670013 126.506302,63.340885 
	C127.569923,63.131714 129.555862,65.494247 130.493240,67.079102 
	C144.391602,90.577728 158.182419,114.139946 172.004074,137.683975 
	C172.754105,138.961624 173.551407,140.211548 174.751724,142.166641 
	C178.645294,132.714951 182.305130,123.872200 185.931412,115.015717 
	C189.334625,106.704002 192.616714,98.340904 196.165787,90.092369 
	C196.795258,88.629356 198.464081,86.666260 199.665573,86.657471 
	C200.920135,86.648285 202.676971,88.482376 203.380493,89.918945 
	C215.309814,114.278091 227.139069,138.686508 238.909729,163.122894 
	C241.040298,167.546036 239.905151,169.233871 234.894272,169.293137 
	C226.562439,169.391693 218.223694,169.493683 209.897949,169.249695 
	C206.138474,169.139511 204.620499,170.378265 205.164795,174.094803 
	C205.260284,174.746765 205.417908,175.580017 205.117889,176.063217 
	C204.273392,177.423370 203.205307,178.644714 202.225372,179.920776 
	C201.096069,178.591782 199.181305,177.375061 198.972534,175.914490 
	C198.034531,169.352707 198.209366,169.327591 191.422745,169.324875 
	C184.423065,169.322083 177.422104,169.399033 170.424149,169.288193 
	C165.969574,169.217636 164.861435,167.475540 166.239761,163.204865 
	C166.341324,162.890244 166.473648,162.568298 166.664841,162.302338 
	C175.916351,149.432434 165.601578,140.528366 160.120117,130.723236 
	C159.555344,129.712952 157.644440,129.241150 156.265839,128.934296 
	C146.684097,126.801613 137.039871,124.936012 127.502228,122.627205 
	C124.530350,121.907784 122.591118,122.475365 120.352036,124.408577 
	C110.970329,132.508667 110.911591,132.438278 100.586174,125.688057 
	C100.318214,125.512878 99.977859,125.448433 99.180809,125.146660 
	C95.071579,132.997009 90.853180,140.859833 86.898842,148.853287 
	C86.392662,149.876495 87.004433,151.689484 87.541885,152.947037 
	C89.044579,156.463135 90.850044,159.848633 92.405479,163.343750 
	C94.274200,167.542847 93.226669,169.245850 88.572975,169.291595 
	C78.923714,169.386505 69.272881,169.320251 58.811996,169.320251 
	C58.811996,171.803741 59.196083,174.002197 58.686031,175.968735 
	C58.303181,177.444794 56.770947,178.622757 55.750427,179.933441 
	C54.557674,178.622101 52.836391,177.491013 52.311413,175.951889 
	C51.710461,174.190018 52.172169,172.065689 52.172169,169.268417 
	C41.937412,169.268417 32.181301,169.268417 22.010002,169.209091 
M38.049683,135.522949 
	C34.428379,144.400726 30.807077,153.278503 27.101437,162.363037 
	C46.477051,162.363037 65.262268,162.363037 84.781609,162.363037 
	C74.265533,140.646622 64.074036,119.600510 53.510780,97.786682 
	C48.220306,110.631554 43.246037,122.708717 38.049683,135.522949 
M218.475861,162.832184 
	C222.542374,162.832184 226.608887,162.832184 231.534943,162.832184 
	C220.930008,140.928726 210.778687,119.962189 200.026627,97.754860 
	C190.911255,120.091873 182.316940,141.152039 173.469650,162.832153 
	C188.857483,162.832153 203.170151,162.832153 218.475861,162.832184 
z"/>
<path fill="#27ADE3" opacity="1.000000" stroke="none" 
	d="
M38.160725,135.154419 
	C43.246037,122.708717 48.220306,110.631554 53.510780,97.786682 
	C64.074036,119.600510 74.265533,140.646622 84.781609,162.363037 
	C65.262268,162.363037 46.477051,162.363037 27.101437,162.363037 
	C30.807077,153.278503 34.428379,144.400726 38.160725,135.154419 
z"/>
<path fill="#27ADE4" opacity="1.000000" stroke="none" 
	d="
M217.979340,162.832169 
	C203.170151,162.832153 188.857483,162.832153 173.469650,162.832153 
	C182.316940,141.152039 190.911255,120.091873 200.026627,97.754860 
	C210.778687,119.962189 220.930008,140.928726 231.534943,162.832184 
	C226.608887,162.832184 222.542374,162.832184 217.979340,162.832169 
z"/>
</svg>